{"asset":{"version":"2.0","generator":"ChatGPT Sphere Generator"},"buffers":[{"uri":"data:application/octet-stream;base64,","byteLength":93216}],"bufferViews":[{"buffer":0,"byteOffset":0,"byteLength":25740,"target":34962},{"buffer":0,"byteOffset":25740,"byteLength":25740,"target":34962},{"buffer":0,"byteOffset":51480,"byteLength":17160,"target":34962},{"buffer":0,"byteOffset":68640,"byteLength":24576,"target":34963}],"accessors":[{"bufferView":0,"byteOffset":0,"componentType":5126,"count":2145,"type":"VEC3","min":[-1.0,-1.0,-1.0],"max":[1.0,1.0,1.0]},{"bufferView":1,"byteOffset":0,"componentType":5126,"count":2145,"type":"VEC3","min":[-1.0,-1.0,-1.0],"max":[1.0,1.0,1.0]},{"bufferView":2,"byteOffset":0,"componentType":5126,"count":2145,"type":"VEC2","min":[0.0,0.0],"max":[1.0,1.0]},{"bufferView":3,"byteOffset":0,"componentType":5123,"count":12288,"type":"SCALAR"}],"materials":[{"name":"Default","pbrMetallicRoughness":{"baseColorFactor":[1.0,1.0,1.0,1.0],"metallicFactor":0.0,"roughnessFactor":1.0}}],"meshes":[{"primitives":[{"attributes":{"POSITION":0,"NORMAL":1,"TEXCOORD_0":2},"indices":3,"mode":4,"material":0}]}],"nodes":[{"mesh":0,"name":"Sphere"}],"scenes":[{"nodes":[0]}],"scene":0}